<?xml version="1.0" standalone="no"?>
<!DOCTYPE svg PUBLIC "-//W3C//DTD SVG 20010904//EN"
 "http://www.w3.org/TR/2001/REC-SVG-20010904/DTD/svg10.dtd">
<svg version="1.0" xmlns="http://www.w3.org/2000/svg"
 width="224.000000pt" height="255.000000pt" viewBox="0 0 224.000000 255.000000"
 preserveAspectRatio="xMidYMid meet">

<g transform="translate(0.000000,255.000000) scale(0.100000,-0.100000)"
fill="#000000" stroke="none">
<path d="M735 2101 c-212 -48 -351 -134 -445 -274 -60 -89 -97 -173 -122 -272
-15 -61 -29 -97 -45 -112 -25 -24 -30 -69 -13 -119 5 -16 14 -67 19 -114 7
-66 14 -88 30 -101 17 -14 21 -28 21 -76 0 -74 26 -269 46 -348 33 -130 39
-149 50 -152 7 -2 14 18 18 54 13 118 21 76 18 -98 -3 -149 0 -200 18 -304 12
-68 25 -137 29 -152 l7 -28 136 -3 136 -3 12 48 c19 80 38 156 49 193 6 19 16
60 24 90 16 62 75 190 88 190 4 0 11 9 14 21 8 25 29 52 70 92 60 58 67 63 72
50 6 -16 14 -16 48 -3 23 9 24 12 14 31 -11 21 -10 22 27 16 22 -4 55 -7 75
-7 36 0 37 -1 41 -41 3 -36 1 -42 -22 -51 -31 -12 -103 -2 -152 22 -35 17 -48
17 -48 -1 0 -5 19 -18 43 -30 87 -46 245 -22 216 32 -9 19 -9 19 10 10 44 -24
32 -3 -19 32 -17 12 -20 17 -9 17 15 0 73 -48 80 -67 2 -5 21 -19 42 -32 20
-12 37 -27 37 -32 0 -4 14 -16 32 -25 54 -28 78 -65 183 -289 31 -66 65 -136
76 -156 10 -20 19 -43 19 -50 1 -8 9 -24 19 -37 16 -18 29 -22 75 -22 40 0 54
3 51 13 -3 6 -1 44 5 82 33 240 33 378 2 793 -5 59 -3 92 3 92 6 0 28 -7 50
-15 43 -15 115 -20 115 -7 0 4 -17 32 -38 62 -47 67 -93 154 -127 240 l-25 65
17 67 c16 64 16 69 -1 104 -14 30 -17 58 -15 128 l3 91 -34 14 c-25 10 -41 27
-54 55 -20 44 -184 211 -217 221 -10 4 -19 10 -19 15 0 5 -35 22 -77 38 -140
54 -505 78 -658 43z m679 -521 c39 -6 71 -12 73 -14 8 -8 -33 -65 -49 -70 -21
-5 -22 1 -3 34 18 31 18 40 4 40 -17 0 -56 -48 -84 -105 -44 -87 -52 -94 -117
-88 -52 5 -59 8 -77 39 -11 19 -25 34 -30 34 -17 0 -100 94 -92 103 8 8 202
34 271 36 19 0 66 -4 104 -9z m130 -40 c-22 -9 -29 -6 -20 9 4 6 14 7 23 4 15
-6 14 -7 -3 -13z m-536 -55 c-2 -1 -21 9 -43 23 -39 25 -40 26 -15 32 20 5 28
1 43 -23 10 -16 17 -30 15 -32z m-104 20 c18 -28 11 -32 -18 -10 -10 7 -15 18
-11 24 9 15 11 14 29 -14z m-73 -23 c-7 -2 -19 -1 -29 3 -14 5 -14 7 -2 15 9
5 20 4 28 -3 10 -8 11 -12 3 -15z m-76 -12 c3 -5 -1 -10 -9 -10 -8 0 -18 5
-21 10 -3 6 1 10 9 10 8 0 18 -4 21 -10z m1025 -18 c0 -10 5 -23 11 -29 9 -9
7 -16 -6 -29 -16 -17 -18 -16 -36 7 -21 27 -24 39 -9 39 6 0 10 7 10 15 0 8 7
15 15 15 8 0 15 -8 15 -18z m-270 -47 c0 4 7 2 15 -5 31 -25 13 -90 -25 -90
-13 0 -15 -8 -12 -37 2 -21 9 -44 14 -50 16 -20 -10 -43 -48 -43 -69 0 -104
38 -104 112 0 51 115 141 148 115 6 -5 12 -6 12 -2z m-588 -30 c-3 -20 0 -25
17 -25 12 0 24 -7 27 -15 8 -19 -22 -65 -41 -65 -8 0 -15 -7 -15 -15 0 -23 28
-86 48 -109 17 -19 16 -19 -33 -13 -113 14 -185 57 -185 111 0 61 62 138 120
149 59 11 68 8 62 -18z m-248 -27 c13 -14 15 -23 8 -26 -7 -2 -12 -10 -12 -18
0 -18 -5 -18 -28 2 -16 13 -17 20 -8 40 14 29 17 30 40 2z m926 -63 c0 -8 -6
-15 -14 -15 -17 0 -28 14 -19 24 12 12 33 6 33 -9z m-552 -22 c-2 -10 -10 -18
-18 -18 -8 0 -16 8 -18 18 -2 12 3 17 18 17 15 0 20 -5 18 -17z m231 -46 c15
-43 101 -157 119 -157 4 0 15 14 24 30 9 17 22 30 29 30 8 0 6 -7 -4 -18 -21
-23 -21 -32 -2 -32 8 0 21 12 30 28 l16 27 -6 -27 c-7 -35 8 -36 30 -2 9 14
19 23 22 20 3 -3 0 -13 -8 -23 -13 -16 -12 -16 16 -1 124 64 115 61 115 41 0
-11 -4 -23 -9 -28 -4 -6 -16 -47 -26 -92 -37 -164 -142 -237 -378 -258 -42 -4
-119 -4 -170 0 l-93 7 -49 61 c-85 105 -115 147 -115 156 0 17 -22 24 -31 10
-6 -10 -9 -5 -8 16 1 17 -3 42 -9 58 -12 28 -7 33 18 17 11 -7 20 -4 33 13
l18 22 -7 -27 c-5 -22 -3 -28 11 -28 9 0 19 9 22 20 3 11 9 20 14 20 12 0 11
-17 -1 -25 -14 -9 -12 -22 5 -29 9 -3 20 5 30 22 l15 27 -6 -27 c-5 -21 -2
-28 10 -28 8 0 23 12 31 28 14 24 13 12 -2 -25 -3 -8 2 -13 12 -13 9 0 19 9
22 20 3 11 10 20 15 20 5 0 6 -9 3 -20 -8 -26 11 -26 25 1 18 33 23 15 6 -25
-18 -42 -13 -41 57 17 55 47 97 127 97 187 0 40 1 41 32 38 28 -3 33 -8 47
-51z"/>
<path d="M1420 1060 c0 -6 7 -10 15 -10 8 0 15 2 15 4 0 2 -7 6 -15 10 -8 3
-15 1 -15 -4z"/>
<path d="M1556 1049 c-11 -11 -15 -19 -9 -19 12 0 38 28 32 34 -2 2 -13 -5
-23 -15z"/>
<path d="M1465 1050 c-3 -5 -2 -10 4 -10 5 0 13 5 16 10 3 6 2 10 -4 10 -5 0
-13 -4 -16 -10z"/>
<path d="M1495 1040 c-3 -5 3 -10 15 -10 12 0 18 5 15 10 -3 6 -10 10 -15 10
-5 0 -12 -4 -15 -10z"/>
<path d="M985 989 c-12 -19 5 -23 22 -6 16 16 16 17 1 17 -9 0 -20 -5 -23 -11z"/>
<path d="M948 973 c7 -3 16 -2 19 1 4 3 -2 6 -13 5 -11 0 -14 -3 -6 -6z"/>
<path d="M1248 917 c-55 -21 -57 -21 -97 -2 -40 17 -59 16 -47 -3 3 -5 26 -15
50 -22 53 -14 132 0 169 31 21 17 21 18 2 17 -11 0 -45 -10 -77 -21z"/>
<path d="M1410 426 c0 -8 7 -35 15 -59 17 -51 72 -251 87 -319 8 -35 15 -48
28 -48 16 0 14 13 -17 127 -19 71 -40 151 -47 178 -22 83 -40 128 -53 133 -7
2 -13 -3 -13 -12z"/>
<path d="M1184 350 c-67 -27 -82 -116 -28 -164 39 -34 58 -39 98 -26 47 15 68
42 73 94 5 40 2 48 -25 76 -32 31 -73 38 -118 20z m8 -96 c-9 -39 -9 -39 -17
-11 -5 17 -3 33 5 42 18 22 22 13 12 -31z m76 3 c2 -27 -1 -38 -17 -46 -30
-16 -53 -4 -40 21 8 15 13 17 25 7 21 -17 25 -8 14 30 -7 24 -6 31 3 28 7 -2
13 -20 15 -40z"/>
<path d="M966 341 c-3 -5 3 -80 14 -167 11 -87 20 -162 20 -166 0 -4 7 -8 15
-8 18 0 16 28 -11 225 -8 55 -15 106 -16 113 -2 14 -14 16 -22 3z"/>
<path d="M1850 90 c0 -5 7 -10 16 -10 8 0 12 5 9 10 -3 6 -10 10 -16 10 -5 0
-9 -4 -9 -10z"/>
</g>
</svg>
